<mxfile host="app.diagrams.net" modified="2022-06-30T07:47:22.402Z" agent="5.0 (Windows NT 10.0; Win64; x64) AppleWebKit/537.36 (KHTML, like Gecko) Chrome/103.0.0.0 Safari/537.36" etag="_0fCCaJK9DMPtDDe8uAl" version="20.0.3" type="github">
  <diagram id="rXlRjKR_FUgVMfsVdFmC" name="Page-1">
    <mxGraphModel dx="1422" dy="705" grid="1" gridSize="10" guides="1" tooltips="1" connect="1" arrows="1" fold="1" page="1" pageScale="1" pageWidth="827" pageHeight="1169" math="0" shadow="0">
      <root>
        <mxCell id="0" />
        <mxCell id="1" parent="0" />
        <mxCell id="x8elqZswDlHCo-Qq9n-O-1" value="node_modules" style="rounded=0;whiteSpace=wrap;html=1;" vertex="1" parent="1">
          <mxGeometry x="80" y="40" width="120" height="40" as="geometry" />
        </mxCell>
        <mxCell id="x8elqZswDlHCo-Qq9n-O-2" value="public" style="rounded=0;whiteSpace=wrap;html=1;" vertex="1" parent="1">
          <mxGeometry x="80" y="98.57" width="120" height="40" as="geometry" />
        </mxCell>
        <mxCell id="x8elqZswDlHCo-Qq9n-O-3" value="src" style="rounded=0;whiteSpace=wrap;html=1;" vertex="1" parent="1">
          <mxGeometry x="80" y="218.57" width="120" height="40" as="geometry" />
        </mxCell>
        <mxCell id="x8elqZswDlHCo-Qq9n-O-4" value="index.html" style="rounded=0;whiteSpace=wrap;html=1;" vertex="1" parent="1">
          <mxGeometry x="180" y="158.57" width="120" height="40" as="geometry" />
        </mxCell>
        <mxCell id="x8elqZswDlHCo-Qq9n-O-5" value="" style="endArrow=none;html=1;rounded=0;entryX=0.5;entryY=1;entryDx=0;entryDy=0;" edge="1" parent="1" target="x8elqZswDlHCo-Qq9n-O-3">
          <mxGeometry width="50" height="50" relative="1" as="geometry">
            <mxPoint x="140" y="918.5700000000004" as="sourcePoint" />
            <mxPoint x="90" y="168.57" as="targetPoint" />
          </mxGeometry>
        </mxCell>
        <mxCell id="x8elqZswDlHCo-Qq9n-O-6" value="api" style="rounded=0;whiteSpace=wrap;html=1;" vertex="1" parent="1">
          <mxGeometry x="180" y="278.57" width="120" height="40" as="geometry" />
        </mxCell>
        <mxCell id="x8elqZswDlHCo-Qq9n-O-7" value="" style="endArrow=none;html=1;rounded=0;exitX=1;exitY=0.5;exitDx=0;exitDy=0;entryX=0;entryY=0.5;entryDx=0;entryDy=0;" edge="1" parent="1">
          <mxGeometry width="50" height="50" relative="1" as="geometry">
            <mxPoint x="140" y="298.56999999999994" as="sourcePoint" />
            <mxPoint x="180" y="298.56999999999994" as="targetPoint" />
          </mxGeometry>
        </mxCell>
        <mxCell id="x8elqZswDlHCo-Qq9n-O-8" value="" style="endArrow=none;html=1;rounded=0;entryX=0.5;entryY=1;entryDx=0;entryDy=0;" edge="1" parent="1">
          <mxGeometry width="50" height="50" relative="1" as="geometry">
            <mxPoint x="140" y="178.56999999999994" as="sourcePoint" />
            <mxPoint x="140" y="138.56999999999994" as="targetPoint" />
          </mxGeometry>
        </mxCell>
        <mxCell id="x8elqZswDlHCo-Qq9n-O-9" value="" style="endArrow=none;html=1;rounded=0;exitX=1;exitY=0.5;exitDx=0;exitDy=0;entryX=0;entryY=0.5;entryDx=0;entryDy=0;" edge="1" parent="1">
          <mxGeometry width="50" height="50" relative="1" as="geometry">
            <mxPoint x="140" y="178.57000000000016" as="sourcePoint" />
            <mxPoint x="180" y="178.57000000000016" as="targetPoint" />
          </mxGeometry>
        </mxCell>
        <mxCell id="x8elqZswDlHCo-Qq9n-O-10" value="" style="endArrow=none;html=1;rounded=0;exitX=1;exitY=0.5;exitDx=0;exitDy=0;entryX=0;entryY=0.5;entryDx=0;entryDy=0;" edge="1" parent="1">
          <mxGeometry width="50" height="50" relative="1" as="geometry">
            <mxPoint x="140" y="358.57000000000016" as="sourcePoint" />
            <mxPoint x="180" y="358.57000000000016" as="targetPoint" />
          </mxGeometry>
        </mxCell>
        <mxCell id="x8elqZswDlHCo-Qq9n-O-11" value="assets" style="rounded=0;whiteSpace=wrap;html=1;" vertex="1" parent="1">
          <mxGeometry x="180" y="338.57" width="120" height="40" as="geometry" />
        </mxCell>
        <mxCell id="x8elqZswDlHCo-Qq9n-O-12" value="" style="endArrow=none;html=1;rounded=0;entryX=0.5;entryY=1;entryDx=0;entryDy=0;" edge="1" parent="1">
          <mxGeometry width="50" height="50" relative="1" as="geometry">
            <mxPoint x="240" y="418.56999999999994" as="sourcePoint" />
            <mxPoint x="240" y="378.56999999999994" as="targetPoint" />
          </mxGeometry>
        </mxCell>
        <mxCell id="x8elqZswDlHCo-Qq9n-O-13" value="" style="endArrow=none;html=1;rounded=0;exitX=1;exitY=0.5;exitDx=0;exitDy=0;entryX=0;entryY=0.5;entryDx=0;entryDy=0;" edge="1" parent="1">
          <mxGeometry width="50" height="50" relative="1" as="geometry">
            <mxPoint x="240" y="418.56999999999994" as="sourcePoint" />
            <mxPoint x="280" y="418.56999999999994" as="targetPoint" />
          </mxGeometry>
        </mxCell>
        <mxCell id="x8elqZswDlHCo-Qq9n-O-14" value="imgs" style="rounded=0;whiteSpace=wrap;html=1;" vertex="1" parent="1">
          <mxGeometry x="280" y="438.57" width="120" height="40" as="geometry" />
        </mxCell>
        <mxCell id="x8elqZswDlHCo-Qq9n-O-15" value="" style="endArrow=none;html=1;rounded=0;entryX=0.5;entryY=1;entryDx=0;entryDy=0;" edge="1" parent="1">
          <mxGeometry width="50" height="50" relative="1" as="geometry">
            <mxPoint x="240" y="458.57000000000016" as="sourcePoint" />
            <mxPoint x="240" y="418.57000000000016" as="targetPoint" />
          </mxGeometry>
        </mxCell>
        <mxCell id="x8elqZswDlHCo-Qq9n-O-16" value="" style="endArrow=none;html=1;rounded=0;exitX=1;exitY=0.5;exitDx=0;exitDy=0;entryX=0;entryY=0.5;entryDx=0;entryDy=0;" edge="1" parent="1">
          <mxGeometry width="50" height="50" relative="1" as="geometry">
            <mxPoint x="240" y="458.57000000000016" as="sourcePoint" />
            <mxPoint x="280" y="458.57000000000016" as="targetPoint" />
          </mxGeometry>
        </mxCell>
        <mxCell id="x8elqZswDlHCo-Qq9n-O-17" value="videos" style="rounded=0;whiteSpace=wrap;html=1;" vertex="1" parent="1">
          <mxGeometry x="280" y="478.57" width="120" height="40" as="geometry" />
        </mxCell>
        <mxCell id="x8elqZswDlHCo-Qq9n-O-18" value="" style="endArrow=none;html=1;rounded=0;entryX=0.5;entryY=1;entryDx=0;entryDy=0;" edge="1" parent="1">
          <mxGeometry width="50" height="50" relative="1" as="geometry">
            <mxPoint x="240" y="498.56999999999994" as="sourcePoint" />
            <mxPoint x="240" y="458.56999999999994" as="targetPoint" />
          </mxGeometry>
        </mxCell>
        <mxCell id="x8elqZswDlHCo-Qq9n-O-19" value="" style="endArrow=none;html=1;rounded=0;exitX=1;exitY=0.5;exitDx=0;exitDy=0;entryX=0;entryY=0.5;entryDx=0;entryDy=0;" edge="1" parent="1">
          <mxGeometry width="50" height="50" relative="1" as="geometry">
            <mxPoint x="240" y="498.56999999999994" as="sourcePoint" />
            <mxPoint x="280" y="498.56999999999994" as="targetPoint" />
          </mxGeometry>
        </mxCell>
        <mxCell id="x8elqZswDlHCo-Qq9n-O-20" value="dummy" style="rounded=0;whiteSpace=wrap;html=1;" vertex="1" parent="1">
          <mxGeometry x="280" y="398.57" width="120" height="40" as="geometry" />
        </mxCell>
        <mxCell id="x8elqZswDlHCo-Qq9n-O-21" value="" style="endArrow=none;html=1;rounded=0;exitX=1;exitY=0.5;exitDx=0;exitDy=0;entryX=0;entryY=0.5;entryDx=0;entryDy=0;" edge="1" parent="1">
          <mxGeometry width="50" height="50" relative="1" as="geometry">
            <mxPoint x="140" y="558.5700000000002" as="sourcePoint" />
            <mxPoint x="180" y="558.5700000000002" as="targetPoint" />
          </mxGeometry>
        </mxCell>
        <mxCell id="x8elqZswDlHCo-Qq9n-O-22" value="components" style="rounded=0;whiteSpace=wrap;html=1;" vertex="1" parent="1">
          <mxGeometry x="180" y="538.57" width="120" height="40" as="geometry" />
        </mxCell>
        <mxCell id="x8elqZswDlHCo-Qq9n-O-23" value="" style="endArrow=none;html=1;rounded=0;exitX=1;exitY=0.5;exitDx=0;exitDy=0;entryX=0;entryY=0.5;entryDx=0;entryDy=0;" edge="1" parent="1">
          <mxGeometry width="50" height="50" relative="1" as="geometry">
            <mxPoint x="140" y="618.5700000000002" as="sourcePoint" />
            <mxPoint x="180" y="618.5700000000002" as="targetPoint" />
          </mxGeometry>
        </mxCell>
        <mxCell id="x8elqZswDlHCo-Qq9n-O-24" value="containers" style="rounded=0;whiteSpace=wrap;html=1;" vertex="1" parent="1">
          <mxGeometry x="180" y="598.57" width="120" height="40" as="geometry" />
        </mxCell>
        <mxCell id="x8elqZswDlHCo-Qq9n-O-25" value="" style="endArrow=none;html=1;rounded=0;exitX=1;exitY=0.5;exitDx=0;exitDy=0;entryX=0;entryY=0.5;entryDx=0;entryDy=0;" edge="1" parent="1">
          <mxGeometry width="50" height="50" relative="1" as="geometry">
            <mxPoint x="140" y="678.5700000000002" as="sourcePoint" />
            <mxPoint x="180" y="678.5700000000002" as="targetPoint" />
          </mxGeometry>
        </mxCell>
        <mxCell id="x8elqZswDlHCo-Qq9n-O-26" value="modules" style="rounded=0;whiteSpace=wrap;html=1;" vertex="1" parent="1">
          <mxGeometry x="180" y="658.57" width="120" height="40" as="geometry" />
        </mxCell>
        <mxCell id="x8elqZswDlHCo-Qq9n-O-27" value="" style="endArrow=none;html=1;rounded=0;exitX=1;exitY=0.5;exitDx=0;exitDy=0;entryX=0;entryY=0.5;entryDx=0;entryDy=0;" edge="1" parent="1">
          <mxGeometry width="50" height="50" relative="1" as="geometry">
            <mxPoint x="140" y="738.5700000000002" as="sourcePoint" />
            <mxPoint x="180" y="738.5700000000002" as="targetPoint" />
          </mxGeometry>
        </mxCell>
        <mxCell id="x8elqZswDlHCo-Qq9n-O-28" value="page" style="rounded=0;whiteSpace=wrap;html=1;" vertex="1" parent="1">
          <mxGeometry x="180" y="718.57" width="120" height="40" as="geometry" />
        </mxCell>
        <mxCell id="x8elqZswDlHCo-Qq9n-O-29" value="" style="endArrow=none;html=1;rounded=0;exitX=1;exitY=0.5;exitDx=0;exitDy=0;entryX=0;entryY=0.5;entryDx=0;entryDy=0;" edge="1" parent="1">
          <mxGeometry width="50" height="50" relative="1" as="geometry">
            <mxPoint x="140" y="798.5700000000004" as="sourcePoint" />
            <mxPoint x="180" y="798.5700000000004" as="targetPoint" />
          </mxGeometry>
        </mxCell>
        <mxCell id="x8elqZswDlHCo-Qq9n-O-30" value="styles" style="rounded=0;whiteSpace=wrap;html=1;" vertex="1" parent="1">
          <mxGeometry x="180" y="778.57" width="120" height="40" as="geometry" />
        </mxCell>
        <mxCell id="x8elqZswDlHCo-Qq9n-O-31" value="" style="endArrow=none;html=1;rounded=0;exitX=1;exitY=0.5;exitDx=0;exitDy=0;entryX=0;entryY=0.5;entryDx=0;entryDy=0;" edge="1" parent="1">
          <mxGeometry width="50" height="50" relative="1" as="geometry">
            <mxPoint x="140" y="858.5700000000004" as="sourcePoint" />
            <mxPoint x="180" y="858.5700000000004" as="targetPoint" />
          </mxGeometry>
        </mxCell>
        <mxCell id="x8elqZswDlHCo-Qq9n-O-32" value="App.jsx" style="rounded=0;whiteSpace=wrap;html=1;" vertex="1" parent="1">
          <mxGeometry x="180" y="838.57" width="120" height="40" as="geometry" />
        </mxCell>
        <mxCell id="x8elqZswDlHCo-Qq9n-O-33" value="" style="endArrow=none;html=1;rounded=0;exitX=1;exitY=0.5;exitDx=0;exitDy=0;entryX=0;entryY=0.5;entryDx=0;entryDy=0;" edge="1" parent="1">
          <mxGeometry width="50" height="50" relative="1" as="geometry">
            <mxPoint x="140" y="918.5700000000004" as="sourcePoint" />
            <mxPoint x="180" y="918.5700000000004" as="targetPoint" />
          </mxGeometry>
        </mxCell>
        <mxCell id="x8elqZswDlHCo-Qq9n-O-34" value="index.js" style="rounded=0;whiteSpace=wrap;html=1;" vertex="1" parent="1">
          <mxGeometry x="180" y="900" width="120" height="40" as="geometry" />
        </mxCell>
        <mxCell id="x8elqZswDlHCo-Qq9n-O-35" value="" style="endArrow=none;html=1;rounded=0;entryX=0.5;entryY=1;entryDx=0;entryDy=0;" edge="1" parent="1">
          <mxGeometry width="50" height="50" relative="1" as="geometry">
            <mxPoint x="40" y="240" as="sourcePoint" />
            <mxPoint x="40" y="60" as="targetPoint" />
          </mxGeometry>
        </mxCell>
        <mxCell id="x8elqZswDlHCo-Qq9n-O-36" value="" style="endArrow=none;html=1;rounded=0;exitX=1;exitY=0.5;exitDx=0;exitDy=0;entryX=0;entryY=0.5;entryDx=0;entryDy=0;" edge="1" parent="1">
          <mxGeometry width="50" height="50" relative="1" as="geometry">
            <mxPoint x="40" y="59.309999999999945" as="sourcePoint" />
            <mxPoint x="80" y="59.309999999999945" as="targetPoint" />
          </mxGeometry>
        </mxCell>
        <mxCell id="x8elqZswDlHCo-Qq9n-O-37" value="" style="endArrow=none;html=1;rounded=0;exitX=1;exitY=0.5;exitDx=0;exitDy=0;entryX=0;entryY=0.5;entryDx=0;entryDy=0;" edge="1" parent="1">
          <mxGeometry width="50" height="50" relative="1" as="geometry">
            <mxPoint x="40" y="120" as="sourcePoint" />
            <mxPoint x="80" y="120" as="targetPoint" />
          </mxGeometry>
        </mxCell>
        <mxCell id="x8elqZswDlHCo-Qq9n-O-38" value="" style="endArrow=none;html=1;rounded=0;" edge="1" parent="1">
          <mxGeometry width="50" height="50" relative="1" as="geometry">
            <mxPoint x="40" y="240" as="sourcePoint" />
            <mxPoint x="80" y="240" as="targetPoint" />
          </mxGeometry>
        </mxCell>
      </root>
    </mxGraphModel>
  </diagram>
</mxfile>
